<svg width="20" height="20" viewBox="0 0 20 20" fill="none" xmlns="http://www.w3.org/2000/svg">
<path d="M10.3948 6.23666C12.5807 6.23666 13.5131 7.16902 13.5131 9.35492H15.592C15.592 6.00279 13.747 4.15782 10.3948 4.15782V6.23666ZM13.9518 11.8942C13.752 11.7127 13.4896 11.6159 13.2198 11.6242C12.95 11.6326 12.694 11.7454 12.5059 11.9389L10.0185 14.4969C9.41976 14.3826 8.21608 14.0074 6.97706 12.7715C5.73804 11.5315 5.3628 10.3247 5.25158 9.73015L7.80758 7.24178C8.00135 7.05378 8.11436 6.79776 8.1227 6.52791C8.13104 6.25807 8.03406 5.99556 7.85228 5.79595L4.01152 1.57279C3.82966 1.37255 3.57691 1.25109 3.30693 1.23421C3.03696 1.21732 2.77104 1.30634 2.56565 1.48236L0.310049 3.41672C0.13034 3.59707 0.0230773 3.83711 0.00860866 4.0913C-0.00698305 4.35116 -0.304265 10.5066 4.46888 15.2817C8.6329 19.4446 13.8489 19.7491 15.2854 19.7491C15.4953 19.7491 15.6242 19.7429 15.6585 19.7408C15.9127 19.7266 16.1526 19.6188 16.3321 19.4383L18.2655 17.1817C18.4416 16.9765 18.5308 16.7107 18.5141 16.4407C18.4974 16.1707 18.3762 15.9179 18.1761 15.7359L13.9518 11.8942Z" fill="#D0D5DD"/>
</svg>
