<svg width="20" height="20" viewBox="0 0 20 20" fill="none" xmlns="http://www.w3.org/2000/svg">
<path d="M10.3948 6.23691C12.5807 6.23691 13.5131 7.16927 13.5131 9.35516H15.592C15.592 6.00304 13.747 4.15807 10.3948 4.15807V6.23691ZM13.9518 11.8945C13.752 11.7129 13.4896 11.6161 13.2198 11.6245C12.95 11.6328 12.694 11.7456 12.5059 11.9392L10.0185 14.4972C9.41976 14.3828 8.21608 14.0076 6.97706 12.7717C5.73804 11.5317 5.3628 10.3249 5.25158 9.7304L7.80758 7.24202C8.00135 7.05402 8.11436 6.79801 8.1227 6.52816C8.13104 6.25831 8.03406 5.9958 7.85228 5.79619L4.01152 1.57303C3.82966 1.37279 3.57691 1.25134 3.30693 1.23445C3.03696 1.21757 2.77104 1.30658 2.56565 1.4826L0.310049 3.41696C0.13034 3.59732 0.0230773 3.83736 0.00860866 4.09154C-0.00698305 4.3514 -0.304265 10.5068 4.46888 15.2819C8.6329 19.4448 13.8489 19.7494 15.2854 19.7494C15.4953 19.7494 15.6242 19.7431 15.6585 19.741C15.9127 19.7268 16.1526 19.6191 16.3321 19.4386L18.2655 17.182C18.4416 16.9767 18.5308 16.7109 18.5141 16.4409C18.4974 16.171 18.3762 15.9182 18.1761 15.7362L13.9518 11.8945Z" fill="#D0D5DD"/>
</svg>
