<svg width="22" height="22" viewBox="0 0 22 22" fill="none" xmlns="http://www.w3.org/2000/svg">
<path d="M19.7578 3.66592C19.6745 3.65734 19.5906 3.65734 19.5073 3.66592H2.39615C2.28649 3.66761 2.17755 3.68406 2.07227 3.71481L10.9028 12.5087L19.7578 3.66592Z" fill="#D0D5DD"/>
<path d="M20.6619 4.51685L11.7641 13.378C11.5351 13.6056 11.2254 13.7334 10.9025 13.7334C10.5796 13.7334 10.2698 13.6056 10.0408 13.378L1.22247 4.58407C1.19536 4.6837 1.18098 4.78637 1.17969 4.88962V17.1118C1.17969 17.436 1.30846 17.7469 1.53767 17.9761C1.76688 18.2053 2.07776 18.3341 2.40191 18.3341H19.513C19.8372 18.3341 20.1481 18.2053 20.3773 17.9761C20.6065 17.7469 20.7352 17.436 20.7352 17.1118V4.88962C20.7304 4.7623 20.7056 4.63652 20.6619 4.51685ZM3.23913 17.1118H2.38969V16.238L6.83246 11.8318L7.69413 12.6935L3.23913 17.1118ZM19.5008 17.1118H18.6452L14.1902 12.6935L15.0519 11.8318L19.4947 16.238L19.5008 17.1118Z" fill="#D0D5DD"/>
</svg>
