<svg width="22" height="22" viewBox="0 0 22 22" fill="none" xmlns="http://www.w3.org/2000/svg">
<path d="M19.7578 3.66611C19.6745 3.65752 19.5906 3.65752 19.5073 3.66611H2.39615C2.28649 3.6678 2.17755 3.68424 2.07227 3.71499L10.9028 12.5089L19.7578 3.66611Z" fill="#D0D5DD"/>
<path d="M20.6619 4.5166L11.7641 13.3777C11.5351 13.6054 11.2254 13.7331 10.9025 13.7331C10.5796 13.7331 10.2698 13.6054 10.0408 13.3777L1.22247 4.58382C1.19536 4.68346 1.18098 4.78613 1.17969 4.88938V17.1116C1.17969 17.4358 1.30846 17.7466 1.53767 17.9758C1.76688 18.2051 2.07776 18.3338 2.40191 18.3338H19.513C19.8372 18.3338 20.1481 18.2051 20.3773 17.9758C20.6065 17.7466 20.7352 17.4358 20.7352 17.1116V4.88938C20.7304 4.76206 20.7056 4.63628 20.6619 4.5166ZM3.23913 17.1116H2.38969V16.2377L6.83246 11.8316L7.69413 12.6933L3.23913 17.1116ZM19.5008 17.1116H18.6452L14.1902 12.6933L15.0519 11.8316L19.4947 16.2377L19.5008 17.1116Z" fill="#D0D5DD"/>
</svg>
