<svg width="72" height="71" viewBox="0 0 72 71" fill="none" xmlns="http://www.w3.org/2000/svg">
<rect x="16" y="-2.00006" width="60" height="60" rx="10" transform="rotate(16.6535 16 -2.00006)" fill="#F58220"/>
<g filter="url(#filter0_b_6315_25986)">
<rect y="11" width="60" height="60" rx="10" fill="white" fill-opacity="0.4"/>
<rect x="0.5" y="11.5" width="59" height="59" rx="9.5" stroke="url(#paint0_linear_6315_25986)" stroke-opacity="0.7"/>
<path d="M34.2076 55.8236C25.9781 52.3283 19.3489 45.8852 15.6181 37.7559V37.752L14.6095 35.5354C13.9429 34.0677 13.8186 32.4109 14.2588 30.8601C14.699 29.3093 15.6752 27.9653 17.0133 27.0674L19.6038 25.329C20.0073 25.0586 20.4974 24.949 20.9775 25.0221C21.4577 25.0952 21.8931 25.3455 22.1981 25.7238L26.9203 31.5804C27.0846 31.7844 27.2061 32.0195 27.2773 32.2716C27.3486 32.5237 27.3682 32.7876 27.335 33.0475C27.3018 33.3073 27.2164 33.5578 27.0841 33.7839C26.9517 34.0099 26.775 34.2069 26.5646 34.3629L24.1219 36.1751C26.418 40.8269 30.1819 44.5923 34.8314 46.8889L36.6426 44.4467C36.7985 44.2362 36.9953 44.0595 37.2213 43.927C37.4472 43.7945 37.6975 43.7091 37.9572 43.6759C38.217 43.6427 38.4807 43.6623 38.7327 43.7336C38.9846 43.8049 39.2196 43.9264 39.4234 44.0909L45.2766 48.8159C45.6547 49.1209 45.9049 49.5566 45.9779 50.0371C46.0509 50.5175 45.9415 51.0079 45.6711 51.4117L43.9455 53.9861C43.0528 55.3175 41.719 56.2907 40.1792 56.7343C38.6395 57.1779 36.9927 57.0633 35.5291 56.4108L34.2076 55.8236Z" fill="white"/>
<path d="M32.6211 36.0837C32.6211 36.4705 32.7746 36.8414 33.048 37.1149C33.3213 37.3884 33.692 37.542 34.0786 37.542H41.5175C41.9041 37.542 42.2748 37.3884 42.5481 37.1149C42.8214 36.8414 42.975 36.4705 42.975 36.0837C42.975 35.6969 42.8214 35.326 42.5481 35.0525C42.2748 34.779 41.9041 34.6254 41.5175 34.6254H37.5979L43.7368 28.4829C43.8759 28.3483 43.9868 28.1874 44.0631 28.0094C44.1394 27.8315 44.1796 27.6401 44.1812 27.4464C44.1827 27.2528 44.1458 27.0608 44.0724 26.8816C43.999 26.7024 43.8907 26.5396 43.7538 26.4028C43.6169 26.2659 43.4541 26.1577 43.275 26.0845C43.0958 26.0112 42.9039 25.9744 42.7104 25.9762C42.5169 25.978 42.3256 26.0183 42.1478 26.0948C41.9701 26.1713 41.8093 26.2825 41.6749 26.4218L35.536 32.5604V28.6404C35.536 28.2537 35.3825 27.8827 35.1092 27.6092C34.8358 27.3357 34.4651 27.1821 34.0786 27.1821C33.692 27.1821 33.3213 27.3357 33.048 27.6092C32.7746 27.8827 32.6211 28.2537 32.6211 28.6404V36.0837Z" fill="white"/>
</g>
<defs>
<filter id="filter0_b_6315_25986" x="-20" y="-9" width="100" height="100" filterUnits="userSpaceOnUse" color-interpolation-filters="sRGB">
<feFlood flood-opacity="0" result="BackgroundImageFix"/>
<feGaussianBlur in="BackgroundImageFix" stdDeviation="10"/>
<feComposite in2="SourceAlpha" operator="in" result="effect1_backgroundBlur_6315_25986"/>
<feBlend mode="normal" in="SourceGraphic" in2="effect1_backgroundBlur_6315_25986" result="shape"/>
</filter>
<linearGradient id="paint0_linear_6315_25986" x1="63.5" y1="11" x2="2" y2="69" gradientUnits="userSpaceOnUse">
<stop stop-color="white" stop-opacity="0.5"/>
<stop offset="1" stop-color="white" stop-opacity="0.1"/>
</linearGradient>
</defs>
</svg>
