<svg width="72" height="71" viewBox="0 0 72 71" fill="none" xmlns="http://www.w3.org/2000/svg">
<rect x="16" y="-2.00006" width="60" height="60" rx="10" transform="rotate(16.6535 16 -2.00006)" fill="#F58220"/>
<g filter="url(#filter0_b_6315_25999)">
<rect y="11" width="60" height="60" rx="10" fill="white" fill-opacity="0.4"/>
<rect x="0.5" y="11.5" width="59" height="59" rx="9.5" stroke="url(#paint0_linear_6315_25999)" stroke-opacity="0.7"/>
<path d="M43.45 25H17.55C16.078 25 14.6664 25.6321 13.6256 26.7574C12.5847 27.8826 12 29.4087 12 31V51C12 52.5913 12.5847 54.1174 13.6256 55.2426C14.6664 56.3679 16.078 57 17.55 57H43.45C44.922 57 46.3336 56.3679 47.3744 55.2426C48.4153 54.1174 49 52.5913 49 51V31C49 29.4087 48.4153 27.8826 47.3744 26.7574C46.3336 25.6321 44.922 25 43.45 25ZM43.45 29L31.425 37.94C31.1438 38.1155 30.8247 38.2079 30.5 38.2079C30.1753 38.2079 29.8562 38.1155 29.575 37.94L17.55 29H43.45Z" fill="white"/>
</g>
<defs>
<filter id="filter0_b_6315_25999" x="-20" y="-9" width="100" height="100" filterUnits="userSpaceOnUse" color-interpolation-filters="sRGB">
<feFlood flood-opacity="0" result="BackgroundImageFix"/>
<feGaussianBlur in="BackgroundImageFix" stdDeviation="10"/>
<feComposite in2="SourceAlpha" operator="in" result="effect1_backgroundBlur_6315_25999"/>
<feBlend mode="normal" in="SourceGraphic" in2="effect1_backgroundBlur_6315_25999" result="shape"/>
</filter>
<linearGradient id="paint0_linear_6315_25999" x1="63.5" y1="11" x2="2" y2="69" gradientUnits="userSpaceOnUse">
<stop stop-color="white" stop-opacity="0.5"/>
<stop offset="1" stop-color="white" stop-opacity="0.1"/>
</linearGradient>
</defs>
</svg>
