<svg width="72" height="71" viewBox="0 0 72 71" fill="none" xmlns="http://www.w3.org/2000/svg">
<rect x="16" y="-2.00006" width="60" height="60" rx="10" transform="rotate(16.6535 16 -2.00006)" fill="#F58220"/>
<g filter="url(#filter0_b_6315_25921)">
<rect y="11" width="60" height="60" rx="10" fill="white" fill-opacity="0.4"/>
<rect x="0.5" y="11.5" width="59" height="59" rx="9.5" stroke="url(#paint0_linear_6315_25921)" stroke-opacity="0.7"/>
<path d="M30.5 40.2C29.4107 40.2 28.3661 39.7786 27.5958 39.0284C26.8256 38.2783 26.3929 37.2609 26.3929 36.2C26.3929 35.1391 26.8256 34.1217 27.5958 33.3716C28.3661 32.6214 29.4107 32.2 30.5 32.2C31.5893 32.2 32.634 32.6214 33.4042 33.3716C34.1744 34.1217 34.6071 35.1391 34.6071 36.2C34.6071 36.7253 34.5009 37.2454 34.2945 37.7307C34.0881 38.216 33.7856 38.657 33.4042 39.0284C33.0228 39.3999 32.57 39.6945 32.0717 39.8955C31.5734 40.0965 31.0394 40.2 30.5 40.2ZM30.5 25C27.45 25 24.5249 26.18 22.3683 28.2804C20.2116 30.3808 19 33.2296 19 36.2C19 44.6 30.5 57 30.5 57C30.5 57 42 44.6 42 36.2C42 33.2296 40.7884 30.3808 38.6317 28.2804C36.4751 26.18 33.55 25 30.5 25Z" fill="white"/>
</g>
<defs>
<filter id="filter0_b_6315_25921" x="-20" y="-9" width="100" height="100" filterUnits="userSpaceOnUse" color-interpolation-filters="sRGB">
<feFlood flood-opacity="0" result="BackgroundImageFix"/>
<feGaussianBlur in="BackgroundImageFix" stdDeviation="10"/>
<feComposite in2="SourceAlpha" operator="in" result="effect1_backgroundBlur_6315_25921"/>
<feBlend mode="normal" in="SourceGraphic" in2="effect1_backgroundBlur_6315_25921" result="shape"/>
</filter>
<linearGradient id="paint0_linear_6315_25921" x1="63.5" y1="11" x2="2" y2="69" gradientUnits="userSpaceOnUse">
<stop stop-color="white" stop-opacity="0.5"/>
<stop offset="1" stop-color="white" stop-opacity="0.1"/>
</linearGradient>
</defs>
</svg>
